<?xml version="1.0" encoding="utf-8"?>
<!-- Svg Vector Icons : http://www.onlinewebfonts.com/icon -->
<!DOCTYPE svg PUBLIC "-//W3C//DTD SVG 1.1//EN" "http://www.w3.org/Graphics/SVG/1.1/DTD/svg11.dtd">
<svg version="1.1" xmlns="http://www.w3.org/2000/svg" xmlns:xlink="http://www.w3.org/1999/xlink" x="0px" y="0px" viewBox="0 0 256 256" enable-background="new 0 0 256 256" xml:space="preserve">
<metadata> Svg Vector Icons : http://www.onlinewebfonts.com/icon </metadata>
<g><g><path fill="#000000" d="M188.4,245.9H145c-16,0-28.9-13-28.9-28.9v-43.4c0-15.9,13-28.9,28.9-28.9h43.4c16,0,28.9,13,28.9,28.9V217C217.3,232.9,204.4,245.9,188.4,245.9z M145,157.5c-8.8,0-16,7.2-16,16V217c0,8.8,7.2,16,16,16h43.4c8.9,0,16.1-7.2,16.1-16v-43.4c0-8.8-7.2-16-16.1-16L145,157.5L145,157.5z M82.4,245.9H38.9c-16,0-28.9-13-28.9-28.9v-43.4c0-15.9,13-28.9,28.9-28.9h43.4c16,0,28.9,13,28.9,28.9V217C111.3,232.9,98.3,245.9,82.4,245.9z M38.9,157.5c-8.8,0-16,7.2-16,16V217c0,8.8,7.2,16,16,16h43.4c8.8,0,16-7.2,16-16v-43.4c0-8.8-7.2-16-16-16L38.9,157.5L38.9,157.5z M82.4,139.8H38.9c-16,0-28.9-13-28.9-28.9V67.5c0-16,13-28.9,28.9-28.9h43.4c16,0,28.9,13,28.9,28.9v43.4C111.3,126.8,98.3,139.8,82.4,139.8z M38.9,51.5c-8.8,0-16,7.2-16,16v43.4c0,8.8,7.2,16,16,16h43.4c8.8,0,16-7.2,16-16V67.5c0-8.8-7.2-16-16-16H38.9z M184.4,133.2c-6.5,0-12.5-2.5-17.1-7.1l-37.5-37.5c-9.4-9.4-9.4-24.7,0-34.1L167.3,17c9.1-9.1,25-9.1,34.1,0l37.5,37.5c4.6,4.6,7.1,10.6,7.1,17.1c0,6.5-2.5,12.5-7.1,17.1l-37.5,37.5C196.9,130.6,190.8,133.2,184.4,133.2z M184.4,22.8c-3,0-5.8,1.2-7.9,3.3l-37.5,37.5c-4.4,4.4-4.4,11.5,0,15.8l37.5,37.5c4.2,4.2,11.7,4.2,15.9,0l37.5-37.5c2.1-2.1,3.3-4.9,3.3-7.9c0-3-1.2-5.8-3.3-7.9l-37.4-37.5C190.2,24,187.4,22.8,184.4,22.8z"/></g></g>
</svg>